<?xml version="1.0" standalone="no"?>
<!DOCTYPE svg PUBLIC "-//W3C//DTD SVG 20010904//EN"
 "http://www.w3.org/TR/2001/REC-SVG-20010904/DTD/svg10.dtd">
<svg version="1.0" xmlns="http://www.w3.org/2000/svg"
 width="271.000000pt" height="271.000000pt" viewBox="0 0 271.000000 271.000000"
 preserveAspectRatio="xMidYMid meet">
<metadata>
Created by potrace 1.14, written by Peter Selinger 2001-2017
</metadata>
<g transform="translate(0.000000,271.000000) scale(0.100000,-0.100000)"
fill="#000000" stroke="none">
<path d="M46 2675 c-14 -13 -30 -35 -35 -47 -4 -13 -8 -590 -7 -1283 1 -992 4
-1265 14 -1282 32 -56 -55 -53 1338 -53 1269 0 1282 0 1307 20 14 11 30 35 35
53 7 20 10 486 9 1287 -2 1181 -3 1257 -20 1281 -9 14 -29 31 -43 37 -18 9
-357 12 -1298 12 l-1273 0 -27 -25z"/>
</g>
</svg>
