<svg width="427" height="311" viewBox="0 0 427 311" fill="none" xmlns="http://www.w3.org/2000/svg">
<path d="M269.363 158.433C268.888 160.913 268.318 163.367 267.654 165.796C267.582 166.078 267.501 166.356 267.421 166.638H258.178C257.391 166.638 256.637 166.949 256.08 167.502C255.523 168.054 255.21 168.803 255.209 169.584V195.733C254.929 196.251 254.645 196.765 254.361 197.278C252.894 199.93 251.367 202.553 249.806 205.142C224.354 247.218 188.856 282.428 146.445 307.663L148.956 302.039C148.036 301.976 147.111 301.913 146.191 301.85C126.15 300.49 106.041 298.983 86.4705 294.513C65.9968 289.836 45.9687 281.724 29.9231 268.275C13.8732 254.822 2.10741 235.61 0.474401 214.823C-0.0701215 207.68 0.657862 200.496 2.62497 193.603C6.387 180.335 14.6072 168.397 26.4663 161.334C45.0949 150.242 69.3944 152.502 89.0324 161.729C108.666 170.952 124.648 186.22 140.253 201.223C124.498 174.409 102.562 151.685 76.2443 134.915C67.5238 129.375 58.269 124.442 50.8549 117.265C43.4449 110.092 37.9776 100.035 39.2883 89.8443C40.777 78.2851 50.3162 69.5126 59.8722 62.7479C63.6895 60.0455 67.6298 57.4819 71.6932 55.1246C83.1579 48.4568 95.5601 43.4265 108.658 41.5617C126.4 39.0318 145.563 42.8708 159.165 54.4553C174.49 67.5089 180.776 88.5604 180.178 108.698C189.619 95.0766 204.18 84.6498 220.624 84.2078C237.696 83.7532 253.924 94.4578 262.475 109.132C271.022 123.802 272.557 141.785 269.363 158.433Z" fill="#CFE0BE"/>
<path d="M160.335 214.999C170.271 214.125 179.449 213.104 189.077 210.383C198.41 207.746 207.39 203.33 214.034 196.121C221.18 188.367 225.037 178.297 227.759 168.272C229.276 162.683 230.523 157.016 231.699 151.347C232.976 145.195 234.11 139.017 235.102 132.812C237.076 120.459 238.486 108.035 239.33 95.5368C239.432 94.0198 239.526 92.5023 239.611 90.9842C239.664 90.0477 238.205 90.0507 238.153 90.9842C237.459 103.303 236.211 115.574 234.408 127.797C232.629 139.807 230.353 151.764 227.465 163.558C225.019 173.549 221.852 183.696 215.578 192.013C209.694 199.813 201.197 204.91 192.021 207.957C182.685 211.058 172.841 212.296 163.084 213.217C161.887 213.33 161.533 213.437 160.335 213.542C159.408 213.624 159.399 215.081 160.335 214.999L160.335 214.999Z" fill="white"/>
<path d="M3.45661 194.671C15.9924 195.366 28.4008 197.549 40.4192 201.176C52.4427 204.796 63.997 209.819 74.8426 216.141C85.3223 222.255 95.0509 229.571 103.831 237.939C112.352 246.066 119.946 255.11 126.475 264.905C133.033 274.725 138.468 285.248 142.678 296.278C143.192 297.628 143.686 298.985 144.162 300.348C144.469 301.228 145.879 300.85 145.568 299.961C141.629 288.699 136.437 277.913 130.088 267.808C123.741 257.701 116.292 248.329 107.877 239.862C99.3277 231.263 89.8127 223.679 79.5211 217.261C57.9123 203.818 33.4188 195.685 8.05201 193.531C6.52184 193.403 4.99004 193.298 3.45663 193.215C2.51888 193.164 2.52176 194.62 3.45663 194.671L3.45661 194.671Z" fill="white"/>
<path d="M71.6399 56.8312C79.6551 59.3771 87.2524 63.085 94.1887 67.8361C101.276 72.724 107.74 78.4573 113.438 84.909C119.441 91.6959 124.779 99.0427 129.377 106.848C134.255 115.09 138.491 123.693 142.051 132.582C145.716 141.708 148.798 151.056 151.28 160.572C153.803 170.2 155.773 179.963 157.182 189.816C158.583 199.563 159.431 209.382 159.722 219.226C160.015 228.638 159.736 238.059 158.888 247.438C158.111 256.188 156.694 264.869 154.646 273.412C152.828 281.128 150.266 288.649 146.995 295.871C146.237 297.51 145.433 299.127 144.583 300.721C144.142 301.548 145.4 302.284 145.842 301.456C149.457 294.557 152.343 287.302 154.454 279.808C156.823 271.464 158.54 262.95 159.59 254.342C160.754 245.002 161.321 235.598 161.287 226.186C161.266 216.298 160.677 206.42 159.522 196.6C158.367 186.657 156.652 176.787 154.384 167.037C152.123 157.271 149.254 147.656 145.795 138.246C142.46 129.137 138.468 120.282 133.85 111.751C129.451 103.61 124.324 95.882 118.533 88.6623C113.033 81.788 106.754 75.5735 99.8218 70.143C93.137 64.9223 85.7501 60.6668 77.8783 57.5015C75.9546 56.7368 74.0044 56.0452 72.0275 55.4268C71.1302 55.1449 70.7463 56.5505 71.6398 56.8312H71.6399Z" fill="white"/>
<path d="M164.415 310.169C230.145 310.169 283.43 308.206 283.43 305.784C283.43 303.362 230.145 301.399 164.415 301.399C98.6848 301.399 45.3999 303.362 45.3999 305.784C45.3999 308.206 98.6848 310.169 164.415 310.169Z" fill="#FFEFE8"/>
<path d="M179.639 296.304L184.638 297.612L192.068 278.98L184.691 277.049L179.639 296.304Z" fill="#FFB8B8"/>
<path d="M193.062 304.77L177.353 300.659L178.943 294.597L188.582 297.12C190.192 297.541 191.568 298.584 192.408 300.018C193.248 301.453 193.483 303.162 193.062 304.77Z" fill="#2F2E41"/>
<path d="M224.071 299.858L229.158 298.951L228.074 278.924L220.567 280.264L224.071 299.858Z" fill="#FFB8B8"/>
<path d="M239.812 301.918L223.825 304.77L222.722 298.601L232.532 296.851C233.343 296.706 234.175 296.723 234.979 296.899C235.784 297.075 236.546 297.408 237.222 297.879C237.898 298.349 238.475 298.948 238.919 299.641C239.363 300.334 239.667 301.108 239.812 301.918Z" fill="#2F2E41"/>
<path d="M214.055 152.579C215.308 152.883 216.328 154.159 216.941 155.637C217.505 157.189 217.888 158.801 218.08 160.441C218.561 163.496 219.024 166.803 218.028 169.632C216.862 172.947 213.754 174.684 211.058 173.868C208.362 173.052 206.218 169.988 205.485 166.462C204.818 162.899 205.248 159.218 206.718 155.903C207.483 154.162 208.539 152.556 209.942 151.77C210.63 151.354 211.45 151.214 212.237 151.378C213.025 151.542 213.721 151.997 214.185 152.653" fill="#2F2E41"/>
<path d="M221.147 207.883L230.831 294.508L222.833 297.541L208.082 239.453L187.545 292.565L178.79 293.05C178.79 293.05 190.802 210.409 199.704 208.531L221.147 207.883Z" fill="#2F2E41"/>
<path d="M213.013 163.633C218.73 163.633 223.365 159.005 223.365 153.295C223.365 147.585 218.73 142.956 213.013 142.956C207.296 142.956 202.662 147.585 202.662 153.295C202.662 159.005 207.296 163.633 213.013 163.633Z" fill="#FFB8B8"/>
<path d="M210.306 162.694C211.928 161.759 212.101 159.505 211.88 157.648C211.66 155.791 211.292 153.721 212.385 152.202C213.689 150.39 216.31 150.354 218.544 150.294C220.778 150.235 223.499 149.582 224.078 147.426C224.46 146.002 223.642 144.473 222.468 143.579C221.293 142.685 219.824 142.289 218.396 141.914C215.202 141.073 211.903 140.226 208.632 140.687C205.393 141.145 202.464 142.858 200.479 145.456C198.494 148.054 197.613 151.328 198.027 154.57C198.557 158.716 199.325 160.527 198.821 162.355C197.882 165.761 193.834 167.948 193.754 171.48C193.691 174.242 196.133 176.373 198.517 177.775C200.407 178.887 202.448 179.831 204.626 180.092C206.805 180.352 209.151 179.854 210.774 178.379C212.867 176.477 213.385 173.299 212.785 170.537C212.184 167.774 210.645 165.321 209.121 162.939" fill="#2F2E41"/>
<path d="M217.456 167.971L206.27 166.513C206.27 166.513 198.974 175.257 199.461 190.315C199.947 205.373 198.245 209.988 198.245 209.988L221.569 210.409C218.197 205.778 232.3 179.185 217.456 167.971Z" fill="#E66357"/>
<path d="M223.465 212.513C223.232 212.515 222.999 212.535 222.769 212.573L208.458 197.358L209.917 192.501L202.865 189.343L198.488 200.03L219.077 216.387C218.966 217.277 219.13 218.18 219.545 218.975C219.961 219.771 220.609 220.421 221.404 220.839C222.198 221.258 223.102 221.425 223.993 221.318C224.885 221.211 225.724 220.836 226.397 220.241C227.07 219.647 227.546 218.863 227.761 217.992C227.977 217.121 227.922 216.205 227.604 215.366C227.285 214.527 226.719 213.805 225.98 213.295C225.241 212.786 224.363 212.513 223.465 212.513Z" fill="#FFB8B8"/>
<path d="M250.299 174.12C250.248 174.347 250.214 174.578 250.198 174.811L232.093 185.242L227.693 182.712L223.001 188.846L232.416 195.547L253.071 179.273C253.913 179.584 254.831 179.632 255.701 179.41C256.571 179.188 257.353 178.707 257.943 178.03C258.532 177.353 258.902 176.513 259.002 175.621C259.102 174.73 258.928 173.829 258.503 173.039C258.078 172.248 257.422 171.606 256.622 171.197C255.823 170.788 254.918 170.632 254.027 170.749C253.137 170.867 252.303 171.252 251.637 171.854C250.971 172.456 250.505 173.247 250.299 174.12Z" fill="#FFB8B8"/>
<path d="M49.3105 295.07C49.6004 295.08 49.8866 295.001 50.1303 294.843C50.374 294.684 50.5633 294.454 50.6727 294.184C50.782 293.914 50.8062 293.616 50.7418 293.331C50.6774 293.047 50.5276 292.789 50.3126 292.593C50.2756 292.451 50.249 292.349 50.212 292.206C50.4827 291.495 50.9584 290.881 51.5781 290.443C52.1979 290.006 52.9335 289.764 53.6906 289.75C54.4477 289.735 55.1919 289.949 55.8277 290.362C56.4635 290.776 56.962 291.371 57.2592 292.072C58.9736 296.004 61.1827 300.07 60.1445 304.429C67.1303 289.163 64.5267 270.28 53.8669 257.383C50.9391 255.798 48.5513 252.953 47.9053 249.63C49.3514 250.107 51.1373 248.911 50.0391 247.394C49.5638 246.815 49.084 246.24 48.6088 245.661C54.0287 239.743 60.6398 248.899 54.6879 256.873C56.683 259.341 58.4162 262.011 59.8592 264.841C59.5036 261.825 59.865 258.767 60.9136 255.918C61.9786 253.263 64.0007 251.016 65.7782 248.712C67.9394 245.905 72.454 247.147 72.7819 250.68C70.7693 251.367 70.5348 254.302 72.8479 254.682C72.3053 261.265 68.0905 267.35 62.2338 270.291C64.4648 276.402 65.3751 282.922 64.904 289.415C65.8708 281.823 73.9455 279.905 79.5731 276.837C79.9309 276.602 80.3491 276.476 80.7768 276.475C81.2044 276.474 81.6231 276.599 81.9816 276.834C82.3401 277.068 82.6229 277.402 82.7957 277.796C82.9684 278.19 83.0236 278.625 82.9544 279.05C82.1768 279.376 81.4334 279.78 80.7351 280.255C80.4079 280.48 80.1582 280.802 80.0201 281.177C79.8821 281.551 79.8625 281.959 79.964 282.345C80.0655 282.73 80.2832 283.075 80.5872 283.332C80.8912 283.588 81.2666 283.744 81.662 283.777C78.8782 290.902 71.5523 295.738 63.9816 295.784C63.2842 298.971 62.2594 302.076 60.9237 305.05L49.6876 305.158C49.6461 305.032 49.6086 304.903 49.5712 304.778C50.6118 304.834 51.6554 304.761 52.6785 304.562C49.8958 301.311 47.752 299.66 49.3101 295.07L49.3105 295.07Z" fill="#E66357"/>
<path d="M278.668 299.205C278.461 299.212 278.257 299.156 278.083 299.042C277.909 298.929 277.773 298.765 277.695 298.572C277.617 298.379 277.6 298.166 277.646 297.963C277.692 297.76 277.799 297.576 277.952 297.436C277.979 297.334 277.998 297.261 278.024 297.159C277.831 296.651 277.491 296.213 277.048 295.9C276.606 295.588 276.08 295.415 275.54 295.405C274.999 295.394 274.467 295.547 274.013 295.842C273.559 296.138 273.203 296.563 272.99 297.063C271.766 299.872 270.188 302.777 270.93 305.89C265.94 294.985 267.799 281.498 275.414 272.286C277.505 271.153 279.21 269.121 279.672 266.748C278.639 267.089 277.363 266.234 278.148 265.151C278.487 264.737 278.83 264.327 279.169 263.913C275.298 259.686 270.576 266.226 274.827 271.922C273.402 273.684 272.164 275.591 271.133 277.613C271.387 275.458 271.129 273.274 270.38 271.239C269.619 269.343 268.175 267.738 266.905 266.092C265.362 264.087 262.137 264.974 261.903 267.498C263.34 267.988 263.508 270.085 261.856 270.356C262.243 275.058 265.254 279.405 269.437 281.506C267.844 285.871 267.193 290.528 267.53 295.166C266.839 289.743 261.072 288.373 257.052 286.181C256.796 286.013 256.498 285.923 256.192 285.923C255.887 285.922 255.588 286.011 255.332 286.179C255.076 286.346 254.874 286.585 254.75 286.866C254.627 287.147 254.587 287.459 254.637 287.762C255.192 287.995 255.723 288.284 256.222 288.622C256.456 288.784 256.634 289.014 256.733 289.281C256.831 289.548 256.845 289.84 256.773 290.115C256.7 290.391 256.545 290.637 256.328 290.821C256.11 291.004 255.842 291.115 255.56 291.139C257.548 296.228 262.781 299.682 268.189 299.715C268.687 301.991 269.419 304.209 270.373 306.333L278.399 306.41C278.428 306.321 278.455 306.229 278.482 306.139C277.739 306.179 276.993 306.127 276.262 305.985C278.25 303.663 279.781 302.483 278.668 299.205Z" fill="#E66357"/>
<path d="M209.066 180.52L223.322 190.668L229.698 182.684L215.84 171.579C215.244 171.101 214.556 170.75 213.819 170.547C213.083 170.343 212.312 170.293 211.555 170.398C210.798 170.502 210.07 170.76 209.416 171.156C208.762 171.551 208.196 172.076 207.753 172.698C206.888 173.909 206.541 175.414 206.787 176.881C207.034 178.348 207.854 179.657 209.066 180.52Z" fill="#A6C488"/>
<path d="M206.121 178.352L199.493 194.534L208.734 198.906L216.387 182.891C216.716 182.202 216.901 181.454 216.93 180.691C216.96 179.928 216.833 179.167 216.557 178.455C216.282 177.743 215.864 177.094 215.329 176.549C214.794 176.004 214.153 175.574 213.445 175.285C212.763 175.006 212.032 174.864 211.294 174.867C210.557 174.87 209.827 175.019 209.147 175.304C208.467 175.588 207.85 176.004 207.331 176.527C206.812 177.05 206.401 177.67 206.121 178.352Z" fill="#A6C488"/>
<circle cx="331.036" cy="268.827" r="18.7919" fill="#CFE0BE"/>
<path d="M412.833 185.406C412.769 185.406 412.728 185.404 412.713 185.404L404.947 185.404V184.256H412.742C412.922 184.262 416.604 184.366 419.996 180.237C425.051 174.082 429.203 158.845 420.272 121.212C408.263 70.6079 418.279 25.9023 423.142 9.03043C423.382 8.19571 423.425 7.31652 423.267 6.46232C423.11 5.60812 422.757 4.80232 422.236 4.10858C421.715 3.41484 421.04 2.85218 420.265 2.46505C419.49 2.07792 418.636 1.87693 417.77 1.87797H301.79C300.908 1.87915 300.039 2.08892 299.253 2.49023C298.468 2.89155 297.787 3.47311 297.267 4.18771C295.207 7.0312 292.38 12.4938 290.61 22.3711L289.483 22.168C291.291 12.0761 294.21 6.45285 296.341 3.51232C296.967 2.65126 297.787 1.95049 298.734 1.46691C299.681 0.983327 300.728 0.730557 301.79 0.729129H417.77C418.814 0.728122 419.843 0.970549 420.777 1.43726C421.711 1.90396 422.524 2.58217 423.151 3.41828C423.779 4.25439 424.204 5.22551 424.394 6.25491C424.583 7.28431 424.531 8.34378 424.242 9.34963C419.404 26.134 409.44 70.6077 421.386 120.946C430.442 159.109 426.088 174.675 420.841 181.014C417.381 185.194 413.567 185.406 412.833 185.406Z" fill="#DFDDDD"/>
<path d="M391.794 206.445C391.73 206.445 391.689 206.444 391.674 206.443L383.908 206.444V205.295H391.703C391.884 205.3 395.565 205.406 398.957 201.276C404.012 195.121 408.164 179.885 399.233 142.251C387.224 91.6471 397.24 46.9415 402.103 30.0696C402.343 29.2349 402.386 28.3557 402.228 27.5015C402.071 26.6473 401.718 25.8415 401.197 25.1478C400.676 24.454 400.001 23.8914 399.226 23.5042C398.451 23.1171 397.597 22.9161 396.731 22.9172H280.751C279.869 22.9183 279 23.1281 278.214 23.5294C277.429 23.9307 276.748 24.5123 276.228 25.2269C274.168 28.0704 271.341 33.533 269.571 43.4103L268.444 43.2072C270.252 33.1153 273.171 27.492 275.302 24.5515C275.928 23.6904 276.748 22.9897 277.695 22.5061C278.642 22.0225 279.689 21.7697 280.751 21.7683H396.731C397.775 21.7673 398.804 22.0097 399.738 22.4764C400.672 22.9431 401.484 23.6214 402.112 24.4575C402.74 25.2936 403.165 26.2647 403.355 27.2941C403.544 28.3235 403.492 29.383 403.203 30.3888C398.365 47.1732 388.401 91.6469 400.347 141.985C409.403 180.148 405.049 195.715 399.802 202.053C396.341 206.234 392.528 206.445 391.794 206.445Z" fill="#BFBFC0"/>
<path d="M370.762 227.484C370.697 227.484 370.657 227.483 370.642 227.482L256.508 227.483C255.409 227.484 254.327 227.215 253.356 226.699C252.384 226.183 251.554 225.436 250.937 224.524C250.32 223.611 249.935 222.56 249.816 221.464C249.697 220.367 249.848 219.258 250.255 218.233C254.396 207.848 259.972 182.93 250.788 132.737C239.943 73.4687 249.652 52.0489 254.33 45.5907C254.955 44.7296 255.775 44.0288 256.721 43.5452C257.667 43.0616 258.714 42.8089 259.776 42.8075H375.696C376.739 42.8065 377.768 43.0489 378.701 43.5156C379.635 43.9823 380.447 44.6605 381.075 45.4966C381.702 46.3327 382.127 47.3039 382.317 48.3333C382.506 49.3626 382.454 50.4221 382.165 51.428C377.329 68.2123 367.37 112.686 379.31 163.024C388.362 201.187 384.01 216.754 378.766 223.092C375.307 227.273 371.496 227.484 370.762 227.484ZM259.776 43.9563C258.894 43.9575 258.026 44.1672 257.24 44.5686C256.455 44.9699 255.775 45.5514 255.255 46.266C250.664 52.6046 241.149 73.6987 251.913 132.53C260.687 180.479 256.432 205.834 251.317 218.66C250.972 219.507 250.843 220.426 250.941 221.335C251.038 222.244 251.36 223.114 251.876 223.867C252.388 224.627 253.078 225.25 253.886 225.68C254.694 226.11 255.594 226.335 256.508 226.334H370.67C370.851 226.343 374.531 226.445 377.921 222.315C382.974 216.16 387.123 200.924 378.197 163.29C366.194 112.686 376.205 67.9806 381.066 51.1088C381.305 50.2741 381.348 49.3949 381.191 48.5407C381.034 47.6865 380.681 46.8807 380.16 46.1869C379.639 45.4932 378.965 44.9305 378.19 44.5434C377.416 44.1563 376.562 43.9553 375.696 43.9563H259.776Z" fill="black"/>
<path d="M356.577 94.2365H265.247C264.028 94.2365 262.86 93.744 261.998 92.8672C261.136 91.9904 260.652 90.8012 260.652 89.5612C260.652 88.3212 261.136 87.132 261.998 86.2552C262.86 85.3784 264.028 84.8858 265.247 84.8858H356.577C357.796 84.8858 358.965 85.3784 359.826 86.2552C360.688 87.132 361.172 88.3212 361.172 89.5612C361.172 90.8012 360.688 91.9904 359.826 92.8672C358.965 93.744 357.796 94.2365 356.577 94.2365Z" fill="#CFE0BE"/>
<path d="M356.577 113.717H265.247C264.028 113.717 262.86 113.225 261.998 112.348C261.136 111.471 260.652 110.282 260.652 109.042C260.652 107.802 261.136 106.613 261.998 105.736C262.86 104.859 264.028 104.366 265.247 104.366H356.577C357.796 104.366 358.965 104.859 359.826 105.736C360.688 106.613 361.172 107.802 361.172 109.042C361.172 110.282 360.688 111.471 359.826 112.348C358.965 113.225 357.796 113.717 356.577 113.717Z" fill="#CFE0BE"/>
<path d="M356.577 133.198H265.247C264.028 133.198 262.86 132.705 261.998 131.828C261.136 130.952 260.652 129.762 260.652 128.523C260.652 127.283 261.136 126.093 261.998 125.217C262.86 124.34 264.028 123.847 265.247 123.847H356.577C357.796 123.847 358.965 124.34 359.826 125.217C360.688 126.093 361.172 127.283 361.172 128.523C361.172 129.762 360.688 130.952 359.826 131.828C358.965 132.705 357.796 133.198 356.577 133.198Z" fill="#CFE0BE"/>
<path d="M362.847 152.679H272.225C271.015 152.679 269.856 152.186 269.001 151.309C268.145 150.432 267.665 149.243 267.665 148.003C267.665 146.763 268.145 145.574 269.001 144.697C269.856 143.82 271.015 143.328 272.225 143.328H362.847C364.056 143.328 365.216 143.82 366.071 144.697C366.926 145.574 367.406 146.763 367.406 148.003C367.406 149.243 366.926 150.432 366.071 151.309C365.216 152.186 364.056 152.679 362.847 152.679Z" fill="#CFE0BE"/>
<path d="M362.847 172.159H272.225C271.015 172.159 269.856 171.667 269.001 170.79C268.145 169.913 267.665 168.724 267.665 167.484C267.665 166.244 268.145 165.055 269.001 164.178C269.856 163.301 271.015 162.808 272.225 162.808H362.847C364.056 162.808 365.216 163.301 366.071 164.178C366.926 165.055 367.406 166.244 367.406 167.484C367.406 168.724 366.926 169.913 366.071 170.79C365.216 171.667 364.056 172.159 362.847 172.159Z" fill="#CFE0BE"/>
<path d="M308.27 74.7559H265.242C264.024 74.7559 262.857 74.2633 261.996 73.3865C261.135 72.5097 260.652 71.3205 260.652 70.0805C260.652 68.8405 261.135 67.6513 261.996 66.7745C262.857 65.8977 264.024 65.4051 265.242 65.4051H308.27C309.488 65.4051 310.655 65.8977 311.516 66.7745C312.377 67.6513 312.86 68.8405 312.86 70.0805C312.86 71.3205 312.377 72.5097 311.516 73.3865C310.655 74.2633 309.488 74.7559 308.27 74.7559Z" fill="#E66357"/>
<path d="M302.858 203.476C303.784 199.642 308.134 198.385 311.691 198.526C313.938 198.674 316.167 199.019 318.352 199.556C320.637 200.056 322.9 200.648 325.152 201.276C329.282 202.427 333.368 203.82 337.566 204.72C341.06 205.47 344.858 205.909 348.342 204.875C351.692 203.88 354.534 201.438 355.445 198.063C356.304 194.882 355.125 191.404 351.972 189.95C349.097 188.624 345.466 189.299 344.041 192.297C342.434 195.677 344.039 199.363 346.583 201.809C348.029 203.137 349.613 204.313 351.309 205.319C353.03 206.466 354.946 207.305 356.967 207.797C360.286 208.49 364.239 207.468 365.95 204.368C366.331 203.667 366.56 202.896 366.623 202.104C366.724 201.026 365.002 201.033 364.902 202.104C364.612 205.191 360.915 206.637 358.15 206.298C356.283 205.996 354.501 205.319 352.915 204.312C351.384 203.439 349.933 202.438 348.579 201.32C346.234 199.336 344.036 196.071 345.611 192.975C346.893 190.454 350.236 190.479 352.27 192.105C354.732 194.074 354.293 197.648 352.669 199.986C350.871 202.575 347.611 203.661 344.538 203.778C341.199 203.905 337.888 203.156 334.696 202.27C330.731 201.169 326.805 199.936 322.82 198.9C320.558 198.311 318.279 197.78 315.976 197.367C313.799 196.898 311.562 196.747 309.339 196.918C305.748 197.323 302.083 199.367 301.198 203.028C300.944 204.081 302.603 204.531 302.858 203.476L302.858 203.476Z" fill="black"/>
<path d="M211.236 33.3017C204.556 33.3111 199.486 28.1809 199.493 21.5591C199.493 21.1261 199.844 20.7738 200.276 20.7738H202.343C202.731 20.7738 203.06 21.0588 203.118 21.4425C203.254 22.3625 203.522 23.2582 203.912 24.1023L203.993 24.2761C204.047 24.3931 204.059 24.5253 204.026 24.6499C203.993 24.7746 203.918 24.8838 203.813 24.9589C203.172 25.4161 202.928 26.3362 203.427 27.0534C204.055 27.9564 204.839 28.7404 205.741 29.3687C206.459 29.8667 207.379 29.6224 207.836 28.9827C207.911 28.8775 208.02 28.8019 208.145 28.7689C208.27 28.7359 208.402 28.7475 208.52 28.8018L208.693 28.8817C209.537 29.2732 210.432 29.541 211.352 29.6772C211.736 29.7344 212.021 30.064 212.021 30.4524V32.5187C212.021 32.6216 212.001 32.7235 211.961 32.8185C211.922 32.9136 211.864 32.9999 211.791 33.0726C211.719 33.1453 211.632 33.203 211.537 33.2423C211.442 33.2816 211.34 33.3018 211.237 33.3017H211.236Z" fill="#E66357"/>
<circle cx="205.757" cy="27.0377" r="17.7919" stroke="#E66357" stroke-width="2"/>
</svg>
